<svg id="Layer_1" enable-background="new 0 0 512 512" height="512" viewBox="0 0 512 512" width="512" xmlns="http://www.w3.org/2000/svg"><g><path d="m142.717 426.581 91.483-341.423c2.144-8.002 10.369-12.751 18.371-10.607l248.307 66.533c8.002 2.144 12.751 10.369 10.607 18.371l-91.483 341.423c-2.144 8.002-10.369 12.751-18.371 10.607l-248.307-66.533c-8.002-2.144-12.751-10.369-10.607-18.371z" fill="#d2c8c8"/><path d="m358.676 444.952-248.307 66.533c-8.002 2.144-16.227-2.605-18.371-10.607l-91.483-341.422c-2.144-8.002 2.605-16.227 10.607-18.371l248.307-66.533c8.002-2.144 16.227 2.605 18.371 10.607l91.483 341.423c2.144 8.001-2.605 16.226-10.607 18.37z" fill="#ede6e6"/><path d="m369.283 426.581-91.483-341.423c-2.144-8.002-10.369-12.751-18.371-10.607l-3.429.919v396.994l102.676-27.512c8.002-2.144 12.751-10.369 10.607-18.371z" fill="#dfd7d7"/><path d="m384.533 383.467h-257.066c-8.284 0-15-6.716-15-15v-353.467c0-8.284 6.716-15 15-15h257.066c8.284 0 15 6.716 15 15v353.467c0 8.284-6.716 15-15 15z" fill="#faf5f5"/><path d="m399.533 368.467v-353.467c0-8.284-6.716-15-15-15h-128.533v383.467h128.533c8.284 0 15-6.716 15-15z" fill="#ede6e6"/><path d="m210.907 68.661c-5.858-5.858-15.355-5.858-21.212 0l-5.46 5.46-5.461-5.461c-5.858-5.858-15.355-5.858-21.212 0-5.858 5.858-5.858 15.355 0 21.212l16.066 16.068c5.858 5.858 15.355 5.858 21.212 0 0 0 16.066-16.066 16.068-16.067 5.856-5.858 5.856-15.355-.001-21.212z" fill="#ff4a4a"/><path d="m354.44 314.807c-5.858 5.858-15.355 5.858-21.212 0l-5.46-5.46-5.461 5.461c-5.858 5.858-15.355 5.858-21.212 0-5.858-5.858-5.858-15.355 0-21.212l16.066-16.068c5.858-5.858 15.355-5.858 21.212 0 0 0 16.066 16.066 16.068 16.067 5.856 5.857 5.856 15.354-.001 21.212z" fill="#ff1f3d"/></g></svg>